<?xml version="1.0" encoding="utf-8"?>
<!-- Generator: Adobe Illustrator 19.2.1, SVG Export Plug-In . SVG Version: 6.00 Build 0)  -->
<svg version="1.1" id="Layer_1" xmlns="http://www.w3.org/2000/svg" xmlns:xlink="http://www.w3.org/1999/xlink" x="0px" y="0px"
	 viewBox="0 0 100 100" style="enable-background:new 0 0 100 100;" xml:space="preserve">
<style type="text/css">
	.st0{fill:#005CB9;}
	.st1{fill:#2D72B9;}
	.st2{fill:#1C8ECE;}
	.st3{fill-rule:evenodd;clip-rule:evenodd;fill:#005CB9;}
	.st4{fill-rule:evenodd;clip-rule:evenodd;fill:#2D72B9;}
	.st5{fill-rule:evenodd;clip-rule:evenodd;fill:#1C8ECE;}
	.st6{fill-rule:evenodd;clip-rule:evenodd;fill:#0D60AD;}
	.st7{fill-rule:evenodd;clip-rule:evenodd;fill:#FFFFFF;}
</style>
<g>
	<g>
		<path class="st0" d="M49.7,100c-6.7,0-13.3-1.4-19.4-4c-5.9-2.5-11.3-6.2-15.8-10.8c-4.6-4.6-8.1-10-10.6-15.9
			C1.3,63.1,0,56.5,0,49.7C0,43,1.4,36.5,4,30.3c2.5-5.9,6.2-11.3,10.8-15.8c4.6-4.6,10-8.1,15.9-10.6C36.9,1.3,43.5,0,50.3,0
			s13.3,1.4,19.4,4c5.9,2.5,11.3,6.2,15.8,10.8c4.6,4.6,8.1,10,10.6,15.9c2.6,6.2,3.9,12.7,3.8,19.5c0,6.7-1.4,13.3-4,19.4
			c-2.5,5.9-6.2,11.3-10.8,15.8c-4.6,4.6-10,8.1-15.9,10.6C63.1,98.7,56.5,100,49.7,100z M50.2,3.1C37.7,3,25.9,7.8,17,16.6
			C8.1,25.5,3.1,37.2,3.1,49.8C3,62.3,7.8,74.1,16.6,83c8.8,8.9,20.6,13.9,33.1,13.9C62.3,97,74.1,92.2,83,83.4s13.9-20.6,13.9-33.1
			C97,37.7,92.2,25.9,83.4,17S62.8,3.1,50.2,3.1z"/>
	</g>
</g>
<path class="st0" d="M46.4,26.3L31.3,11.2L16.3,26.3l14.4,14.4c0.3,0.1,0.7,0.2,1,0.2L46.4,26.3z"/>
<path class="st1" d="M40.4,42c6.4,0,12-1.9,17.2-4.5L46.4,26.3L31.7,41C34.4,41.6,37.3,42,40.4,42z"/>
<path class="st2" d="M65.6,33.2c2.8-1.6,5.6-3.2,8.4-4.4l2.5-2.5L61.4,11.2L46.4,26.3l11.2,11.2C60.3,36.2,63,34.7,65.6,33.2z"/>
<path class="st0" d="M30.7,40.7L16.3,26.3l-2.8,2.8c0.7,1,1.6,2,2.5,3C20.1,36.3,25.1,39.2,30.7,40.7z"/>
<path class="st1" d="M74,28.8c1.2-0.5,2.4-1,3.6-1.4l-1.1-1.1L74,28.8z"/>
<path class="st1" d="M32.6,9.9c-0.6,0.3-1.2,0.5-1.8,0.8l0.5,0.5L32.6,9.9z"/>
<path class="st0" d="M31.3,11.2l-0.5-0.5c-6.5,3.2-12.1,8-16.3,13.8l1.7,1.7L31.3,11.2z"/>
<path class="st0" d="M14.5,24.6c-0.7,1-1.4,2-2.1,3.1c0.3,0.5,0.7,0.9,1,1.4l2.8-2.8L14.5,24.6z"/>
<path class="st1" d="M46.4,26.3l15.1-15.1l-4.3-4.3c-2.3-0.4-4.7-0.6-7.1-0.6c-6.2,0-12.1,1.3-17.4,3.6l-1.3,1.3L46.4,26.3z"/>
<path class="st2" d="M77.6,27.4c3-1,6-1.5,9-1.2c-1.3-2-2.8-3.9-4.4-5.7l-5.7,5.7L77.6,27.4z"/>
<path class="st1" d="M76.5,26.3l5.7-5.7C77.3,15.2,71.1,11,64,8.6l-2.6,2.6L76.5,26.3z"/>
<path class="st2" d="M64,8.6c-2.2-0.8-4.5-1.3-6.9-1.7l4.3,4.3L64,8.6z"/>
<path class="st3" d="M46.4,56.4L34.6,44.6c-1.9-0.3-3.7-0.6-5.4-1.1L16.3,56.4l15.1,15.1L46.4,56.4z"/>
<path class="st3" d="M6.5,46.6c-0.1,1.1-0.1,2.2-0.1,3.4c0,4.9,0.8,9.6,2.3,14l7.6-7.6L6.5,46.6z"/>
<path class="st3" d="M10.8,30.7c-0.3,0.6-0.6,1.3-0.9,2l1.4-1.4C11.1,31,11,30.8,10.8,30.7z"/>
<path class="st4" d="M34.6,44.6l11.8,11.8l15.1-15.1l-1.6-1.6C54.1,42.7,47.7,45,40.4,45C38.3,45,36.4,44.9,34.6,44.6z"/>
<path class="st5" d="M66.7,36.1c-2.2,1.2-4.4,2.5-6.8,3.6l1.6,1.6L66.7,36.1z"/>
<path class="st5" d="M57.1,67.1c3.2-3.2,5.9-6.2,8.3-8.8c2.2-2.5,4.3-4.7,6.3-6.7L61.4,41.3L46.4,56.4L57.1,67.1z"/>
<path class="st5" d="M92.6,40.3c-0.8-3.7-2.2-7.3-3.9-10.6c-2.9-0.8-5.8-0.6-8.6,0.1l11.5,11.5L92.6,40.3z"/>
<path class="st4" d="M66.7,36.1l-5.2,5.2l10.2,10.2c5.2-5,10.2-8.2,18.2-8.5l1.7-1.7L80.1,29.8c-4.2,1.1-8.4,3.5-13,6.1
	C66.9,36,66.8,36.1,66.7,36.1z"/>
<path class="st3" d="M16.3,56.4L8.7,64c1.8,5.5,4.7,10.4,8.4,14.7c1.6,0.4,3.7,0.7,6.1,1l8.2-8.2L16.3,56.4z"/>
<path class="st5" d="M93.1,42.9c-0.1-0.9-0.3-1.7-0.5-2.5l-1,1L93.1,42.9z"/>
<path class="st3" d="M16.3,56.4l12.9-12.9c-7.2-2.1-12.2-6-15.5-9.4c-0.9-0.9-1.7-1.9-2.4-2.8l-1.4,1.4C8,37,6.8,41.7,6.5,46.6
	L16.3,56.4z"/>
<path class="st3" d="M23.1,79.6c1.3,0.1,2.7,0.2,4.2,0.2c3.9,0,7.5-0.5,11-1.4l-7-7L23.1,79.6z"/>
<path class="st4" d="M57.1,67.1L46.4,56.4L31.3,71.5l7,7c6.4-1.7,12.2-5,17.2-9.9C56.1,68.1,56.6,67.6,57.1,67.1z"/>
<path class="st4" d="M89.9,43c1,0,2.1-0.1,3.2,0c0-0.1,0-0.1,0-0.2l-1.5-1.5L89.9,43z"/>
<path class="st4" d="M67.6,60.3c-2.4,2.7-5.2,5.7-8.4,8.9l2.2,2.2l15.1-15.1l-2.7-2.7C71.9,55.6,69.9,57.8,67.6,60.3z"/>
<path class="st5" d="M86.5,46.5c-5,0.9-8.7,3.4-12.6,7.3l2.7,2.7L86.5,46.5z"/>
<path class="st5" d="M61.4,71.5l-2.2-2.2c-0.5,0.5-1,1-1.5,1.5c-5.5,5.4-11.4,8.4-16.9,10.2l5.6,5.6L61.4,71.5z"/>
<path class="st4" d="M93.5,46.1c-2.7-0.2-5,0-7,0.4l-10,10l12.8,12.8c2.8-5.8,4.4-12.3,4.4-19.2C93.7,48.7,93.6,47.4,93.5,46.1z"/>
<path class="st5" d="M61.4,71.5l14,14c5.8-4.2,10.6-9.8,13.8-16.3L76.5,56.4L61.4,71.5z"/>
<path class="st4" d="M40.8,80.9c-4.9,1.5-9.4,2-13.3,2c-0.1,0-0.2,0-0.3,0c-2.3,0-4.5-0.2-6.4-0.5c5.4,4.9,12.1,8.4,19.5,10.1
	l6.1-6.1L40.8,80.9z"/>
<path class="st4" d="M46.4,86.5l7,7c8.2-0.6,15.8-3.5,22.1-8.1l-14-14L46.4,86.5z"/>
<path class="st6" d="M40.3,92.6c3.1,0.7,6.4,1.1,9.7,1.1c1.1,0,2.3-0.1,3.4-0.1l-7-7L40.3,92.6z"/>
<path class="st7" d="M27.4,74.6c-4.9,0-8.9-4-8.9-8.9c0-4.9,3.5-10.7,8.9-17.4c5.8,7,8.9,12.5,8.9,17.4
	C36.3,70.6,32.3,74.6,27.4,74.6z"/>
</svg>
